<?xml version="1.0" encoding="utf-8"?>
<!-- Generator: Adobe Illustrator 25.0.1, SVG Export Plug-In . SVG Version: 6.00 Build 0)  -->
<svg version="1.1" id="katman_1" xmlns="http://www.w3.org/2000/svg" xmlns:xlink="http://www.w3.org/1999/xlink" x="0px" y="0px"
	 viewBox="0 0 291 228.7" style="enable-background:new 0 0 291 228.7;" xml:space="preserve">
<style type="text/css">
	.st0{fill:#FFFFFF;}
	.st1{fill:url(#SVGID_1_);}
	.st2{fill:url(#SVGID_2_);}
	.st3{fill:url(#SVGID_3_);}
	.st4{fill:url(#SVGID_4_);}
	.st5{fill-rule:evenodd;clip-rule:evenodd;fill:#D31211;}
	.st6{fill-rule:evenodd;clip-rule:evenodd;fill:#1B6811;}
	.st7{fill-rule:evenodd;clip-rule:evenodd;fill:#00307D;}
	.st8{fill-rule:evenodd;clip-rule:evenodd;fill:#FFFFFF;}
	.st9{fill-rule:evenodd;clip-rule:evenodd;fill:#F88A00;}
	.st10{fill:#111111;}
</style>
<g id="Group_10556" transform="translate(-7473 -623)">
	<g id="Group_9909" transform="translate(779 46)">
		<g id="Group_9414" transform="translate(9 -145.978)">
			<path id="Path_22451" class="st0" d="M6890.4,724.5c8.9,0,13.5,0.1,28-0.3l15.1,0.3l39.8,75.3c3.7,7,3.7,15.4,0,22.4l-61.7,116.7
				c-4.2,7.9-12.3,12.8-21.2,12.8h-119.7c-8.9,0-17.1-4.9-21.2-12.8l-61.7-116.7c-3.7-7-3.7-15.4,0-22.4l40-75.6l45.1,0.3
				c14.5,0.1,21.6,0,30.5,0H6890.4z"/>
			<g transform="matrix(1, 0, 0, 1, -34.52, 23.16)">
				<g id="Path_22450-2" transform="translate(39.05 -20.94)">
					
						<linearGradient id="SVGID_1_" gradientUnits="userSpaceOnUse" x1="6533.8833" y1="1167.2798" x2="6533.0703" y2="1166.2708" gradientTransform="matrix(281.4633 0 0 -218.36 -1832129.375 255610.375)">
						<stop  offset="0" style="stop-color:#FFC400"/>
						<stop  offset="1" style="stop-color:#DB890E"/>
					</linearGradient>
					<path class="st1" d="M6852.3,722.3c9,0,16.5,0,36.5,0h40.9l34,66.5c3.5,6.9,3.5,15,0,21.8l-59.6,116.7
						c-4.1,8-12.4,13.1-21.4,13.1h-114.3c-9,0-17.3-5.1-21.4-13.1l-59.6-116.7c-3.5-6.9-3.5-15,0-21.8l34.1-66.8h37.8
						c20,0.3,26,0.3,35,0.3H6852.3z"/>
					
						<linearGradient id="SVGID_2_" gradientUnits="userSpaceOnUse" x1="6533.8833" y1="1167.2798" x2="6533.0703" y2="1166.2708" gradientTransform="matrix(281.463 0 0 -218.3608 -1832127.125 255611.3438)">
						<stop  offset="0" style="stop-color:#FFC400"/>
						<stop  offset="1" style="stop-color:#DB890E"/>
					</linearGradient>
					<path class="st2" d="M6722.2,723l-33.8,66.2c-1.6,3.2-2.5,6.8-2.5,10.5c0,3.6,0.9,7.2,2.5,10.5l59.6,116.7
						c1.9,3.8,4.9,6.9,8.5,9.2c3.6,2.2,7.8,3.4,12,3.4h114.3c4.2,0,8.4-1.2,12-3.4c3.6-2.2,6.5-5.4,8.5-9.2l59.6-116.7
						c1.6-3.2,2.5-6.8,2.5-10.5c0-3.6-0.9-7.2-2.5-10.5l-33.7-65.9h-40.3c-6.7,0-11.9,0-16.3,0c-4.8,0-8.6,0-12,0
						c-2.8,0-5.4,0-8.1,0h-58c-8.8,0-14.7,0-35-0.3H6722.2 M6721.5,722h37.8c20,0.3,26,0.3,35,0.3h58c6,0,11.3,0,20.2,0
						c4.4,0,9.7,0,16.3,0h40.9l34,66.5c3.5,6.9,3.5,15,0,21.8l-59.6,116.7c-4.1,8-12.4,13.1-21.4,13.1h-114.3
						c-9,0-17.3-5.1-21.4-13.1l-59.6-116.7c-3.5-6.9-3.5-15,0-21.8L6721.5,722z"/>
				</g>
			</g>
			<g transform="matrix(1, 0, 0, 1, -34.52, 23.16)">
				<g id="Path_1360-2" transform="translate(306.72 252.51) rotate(180)">
					
						<linearGradient id="SVGID_3_" gradientUnits="userSpaceOnUse" x1="-6264.522" y1="-894.5818" x2="-6263.6821" y2="-894.0588" gradientTransform="matrix(-247.7275 0 0 210.501 -1558582 187696.9219)">
						<stop  offset="0" style="stop-color:#FFFFFF"/>
						<stop  offset="1" style="stop-color:#E5E5E5"/>
					</linearGradient>
					<path class="st3" d="M-6499.7-659.1c3.5,0,6.8,2.8,9,7.7l53.7,116.1c3.8,8.1,3.8,20.1,0,28.2l-27,58.6l-35.7-0.1
						c-16,0-36-0.2-39.5-0.2h-48.5l-64.4-0.1l-27-58.3c-3.8-8.1-3.8-20.1,0-28.2l53.7-116.1c2.2-4.9,5.5-7.7,9-7.7H-6499.7z"/>
					
						<linearGradient id="SVGID_4_" gradientUnits="userSpaceOnUse" x1="-6264.522" y1="-894.5818" x2="-6263.6821" y2="-894.0588" gradientTransform="matrix(-247.7282 0 0 210.5028 -1558586.25 187698.5)">
						<stop  offset="0" style="stop-color:#FFFFFF"/>
						<stop  offset="1" style="stop-color:#E5E5E5"/>
					</linearGradient>
					<path class="st4" d="M-6616.3-658.1c-1.5,0-2.9,0.6-4.3,1.8c-1.4,1.2-2.7,3.1-3.8,5.3l-53.7,116.1c-1.8,3.8-2.7,8.7-2.7,13.7
						s1,9.9,2.7,13.7l26.7,57.7l63.8,0.1h22.5h26c1.2,0,4.6,0,9.2,0c8,0,20.1,0.1,30.3,0.1l35.1,0.1l26.7-58
						c1.8-3.8,2.7-8.7,2.7-13.7c0-5-1-9.9-2.7-13.7l-53.7-116.1c-1-2.3-2.4-4.1-3.8-5.3c-1.4-1.2-2.8-1.8-4.3-1.8H-6616.3
						 M-6616.3-659.1h116.6c3.5,0,6.8,2.8,9,7.7l53.7,116.1c3.8,8.1,3.8,20.1,0,28.2l-27,58.6l-35.7-0.1c-16,0-36-0.2-39.5-0.2h-26
						c-3.5,0-5,0-22.5,0l-64.4-0.1l-27-58.3c-3.8-8.1-3.8-20.1,0-28.2l53.7-116.1C-6623.1-656.3-6619.8-659.1-6616.3-659.1z"/>
				</g>
			</g>
		</g>
	</g>
	<g id="Group_10403" transform="translate(699.268 -24.468)">
		<path id="Path_2434" class="st5" d="M6966.4,714.4l0.4,0.5l0.4,0.5l0.4,0.5l0.4,0.5l0.4,0.5l0.4,0.5l0.4,0.6l0.4,0.6l0.4,0.6
			l0.4,0.6l0.4,0.6l0.4,0.6l0.4,0.6l0.4,0.6l0.4,0.6l0.4,0.6l0.8,1.6l-43.5-4.8l0-0.2l0-0.2l0-0.2l0-0.2l0-0.2v-0.2l0-0.2v-0.6
			l0-0.1L6966.4,714.4z M6954.4,703.8l0.9,0.7l0.9,0.7l0.9,0.7l0.9,0.7l0.9,0.7l0.9,0.7l0.9,0.7l0.8,0.8l-31.2,7.6l-0.1-0.3
			l-0.1-0.3l-0.1-0.3l-0.1-0.3l-0.1-0.3l-0.1-0.3l-0.1-0.3l-0.1-0.3L6954.4,703.8z M6944,698.1l0.9,0.4l0.9,0.4l0.9,0.4l0.8,0.4
			l0.8,0.4l0.8,0.4l0.8,0.5l0.8,0.5l-21.4,12.5l-0.1-0.2l-0.1-0.2l-0.1-0.2l-0.1-0.2l-0.1-0.2l-0.2-0.2l-0.1-0.2l-0.2-0.2
			L6944,698.1z M6936.5,695.4l0.6,0.2l0.6,0.2l0.5,0.2l0.6,0.2l0.6,0.2l0.5,0.2l0.5,0.2l0.5,0.2l-13.3,14.9l-0.2-0.1l-0.2-0.2
			l-0.2-0.1l-0.2-0.1l-0.2-0.1l-0.2-0.1l-0.2-0.1l-0.2-0.1L6936.5,695.4z M6928.8,693.7l0.6,0.1l0.6,0.1l0.6,0.1l0.6,0.1l0.6,0.1
			l0.6,0.1l0.6,0.1l0.6,0.1l-7.9,15.6l-0.2-0.1l-0.2-0.1l-0.2-0.1l-0.3-0.1l-0.3-0.1l-0.3-0.1l-0.3-0.1l-0.3-0.1L6928.8,693.7z
			 M6921.4,693l0.6,0l0.6,0l0.6,0l0.6,0l0.6,0l0.6,0.1l0.6,0.1l0.6,0.1l-3.7,15.8l-0.2,0l-0.2,0l-0.2,0l-0.2,0l-0.2,0l-0.2,0h-0.2
			l-0.2,0L6921.4,693z M6913.9,693.2L6913.9,693.2L6913.9,693.2l0.1,0l0.5,0h1.6l1,0l0.9,0l0.8,0l0.5,0l0.2,0l0.9,15.8l-0.3,0
			l-0.3,0l-0.2,0l-0.3,0l-0.2,0l-0.2,0.1l-0.2,0.1l-0.2,0.1L6913.9,693.2z M6905.8,694.5l0.7-0.1l0.7-0.1l0.7-0.1l0.7-0.1l0.7-0.1
			l0.7-0.1l0.7-0.1l0.7-0.1l6.5,16.1l-0.3,0.1l-0.3,0.1l-0.2,0.1l-0.2,0.1l-0.2,0.1l-0.2,0.1l-0.2,0.1l-0.2,0.2L6905.8,694.5z
			 M6896.6,697.3l0.9-0.3l0.9-0.3l0.9-0.3l0.9-0.3l0.9-0.3l0.9-0.3l0.9-0.3l1-0.3l11.5,16l-0.2,0.2l-0.2,0.2l-0.2,0.2l-0.2,0.2
			l-0.2,0.2l-0.2,0.2l-0.2,0.2l-0.2,0.2L6896.6,697.3z M6886.5,702.3l0.5-0.3l0.5-0.3l0.6-0.3l0.5-0.3l0.6-0.3l0.6-0.3l0.6-0.3
			l0.6-0.3l3.5-1.2l18.9,14.3l-0.1,0.2l-0.1,0.2l-0.1,0.2l-0.1,0.2l-0.1,0.2l-0.1,0.2l-0.1,0.2l-0.1,0.2L6886.5,702.3z
			 M6873.4,713.1l0.6-0.6l0.6-0.6l0.6-0.6l0.6-0.6l0.6-0.6l0.6-0.6l0.6-0.6l0.6-0.6l0.6-0.5l0.6-0.5l0.6-0.5l0.6-0.5l0.6-0.5
			l0.6-0.5l0.7-0.5l0.7-0.5l28.8,11.2l-0.1,0.2l-0.1,0.3l-0.1,0.3l-0.1,0.3l0,0.3l0,0.3l0,0.3l0,0.3L6873.4,713.1z M6861.6,731.2
			l0.4-0.9l0.4-0.9l0.4-0.9l0.4-0.9l0.4-0.9l0.5-0.9l0.5-0.9l0.5-0.8l0.5-0.8l0.5-0.8l0.5-0.8l0.5-0.8l0.5-0.8l0.6-0.8l0.6-0.8
			l0.6-0.8l42.2,1.2l0,0.3l0,0.3l0,0.3l0,0.3l0,0.3l0.1,0.3l0.1,0.3l0.1,0.3L6861.6,731.2z M6856.4,754.9l56.8-31.2l-0.1-0.2
			l-0.1-0.2l-0.1-0.2l-0.1-0.2l-0.1-0.2l-0.1-0.2l-0.1-0.2l-0.1-0.3l-53.3,16.7l-0.3,1l-0.3,1l-0.2,1l-0.2,1l-0.2,1l-0.2,1l-0.2,1
			l-0.2,1l-0.2,1l-0.1,1l-0.1,1l-0.1,1.1l-0.1,1l-0.1,1.1l-0.1,1.1L6856.4,754.9z"/>
		<path id="Path_2435" class="st6" d="M6856.9,764.7l0.5-0.8l0.6-0.8l0.7-0.8l0.7-0.9l0.8-0.9l0.8-0.9l0.8-0.9l0.8-0.9l0.9-0.9
			l0.9-0.9l0.9-0.9l0.9-0.9l0.9-0.8l0.9-0.8l0.9-0.8l0.9-0.7l0.9-0.7l0.9-0.6l0.9-0.6l0.8-0.5l0.8-0.5l0.8-0.4l0.7-0.3l0.7-0.2
			l0.6-0.2l0.6-0.1l0.5,0l0.5,0.1l0.4,0.2l0.3,0.3l0.3,0.5l0.2,0.6l0,0.1l0,0.1l0,0.1l0.1,0.1l0.1,0.1l0.1,0.1l0.1,0.1l0.1,0.1
			l0.1,0.1l0.1,0.1l0.1,0.1l0.2,0.1l0.2,0.1l0.2,0.1l0.2,0.1l0.2,0.1l0.2,0.1l0.3,0l0.3,0l0.3,0l0.3,0l0.3,0l0.4-0.1l0.4-0.1
			l0.4-0.1l0.4-0.1l0.5-0.2l0.5-0.2l0.5-0.2l0.5-0.3l0.5-0.3l0.6-0.3l1.3-0.9l1.3-0.8l1.2-0.7l1.1-0.7l0.5-0.3l0.5-0.3l0.5-0.3
			l0.5-0.2l0.5-0.2l0.5-0.2l0.5-0.2l0.5-0.1l0.4-0.1l0.4-0.1l0.4-0.1l0.4-0.1l0.4,0l0.4,0l0.4,0l0.4,0.1l0.4,0.1l0.4,0.1l0.4,0.1
			l0.4,0.2l0.4,0.2l0.4,0.2l0.4,0.3l0.4,0.3v28l-0.8,0.1l-0.8,0.1l-0.8,0l-0.8,0l-0.7,0h-0.7l-0.7,0l-0.7,0l-0.7,0l-0.6-0.1
			l-0.6-0.1l-0.6-0.1l-0.5-0.1l-0.5-0.1l-0.5-0.1l-0.4-0.1l-0.9-0.3l-0.9-0.3l-0.9-0.2l-0.9-0.2l-0.9-0.1l-0.9,0h-0.9l-0.9,0.1
			l-0.9,0.1l-0.9,0.2l-0.8,0.2l-0.9,0.3l-0.8,0.3l-0.8,0.4l-0.8,0.5l-0.8,0.5l-0.8,0.6l-0.8,0.6l-0.8,0.7l-0.8,0.7l-0.8,0.8
			l-0.8,0.9l-0.8,0.9l-0.8,1l-0.8,1l-0.8,1.1l-0.9,1.2l-0.9,1.2l-0.9,1.3l-0.9,1.3l-0.9,1.4l-0.9,1.4l-0.4-0.7l-0.4-0.7l-0.4-0.7
			l-0.4-0.7l-0.4-0.7l-0.4-0.7l-0.4-0.7l-0.4-0.7l-0.4-0.8l-0.3-0.8l-0.3-0.8l-0.3-0.8l-0.3-0.8l-0.3-0.8l-0.3-0.8l-0.3-0.8
			l-0.3-0.8l-0.3-0.8l-0.3-0.8l-0.3-0.8l-0.2-0.8l-0.2-0.8l-0.2-0.8l-0.2-0.8l-0.2-0.8l-0.2-0.8l-0.2-0.8l-0.2-0.8l-0.1-0.8
			l-0.1-0.9l-0.1-0.9L6856.9,764.7z M6936.6,742.7l0.4-0.2l0.4-0.2l0.4-0.2l0.4-0.3l0.8-0.6l0.8-0.6l1.7-1.3l1.7-1.3l0.9-0.7
			l0.9-0.7l0.9-0.7l0.9-0.7l1-0.7l1-0.7l1-0.6l1-0.6l0.8-0.4l0.8-0.4l0.4-0.2l0.4-0.2l0.3-0.2l0.4-0.1l0.3-0.1l0.3-0.1l0.3-0.1
			l0.3-0.1l0.3-0.1l0.3-0.1l0.3,0l0.3,0l0.3,0l0.3,0l0.3,0l0.3,0.1l0.3,0.1l0.3,0.1l0.3,0.1l0.3,0.1l0.3,0.2l0.3,0.2l0.3,0.2
			l0.3,0.2l0.2,0.3l0.2,0.3l0.2,0.3l0.2,0.3l0.4,0.6l0.4,0.5l0.4,0.4l0.4,0.3l0.4,0.2l0.4,0.1l0.5,0.1l0.4,0l0.5,0l0.5-0.1l0.5-0.2
			l0.5-0.2l0.5-0.2l0.5-0.3l0.5-0.3l0.5-0.3l0.4-0.4l0.5-0.4l0.4-0.4l0.4-0.4l0.9-0.9l0.8-0.9l0.8-0.9l0.8-0.8l0.4-0.4l0.3-0.3
			l0.3-0.3l0.3-0.2l0.8,1.4l0.7,1.3l0.3,0.7l0.3,0.7l0.3,0.7l0.3,0.7l0.3,0.7l0.3,0.7l0.3,0.7l0.3,0.7l0.3,0.7l0.2,0.7l0.2,0.7
			l0.2,0.7l0.2,0.7l0.2,0.7l0.2,0.7l0.2,0.7l0.2,0.7l0.2,0.7l0.2,0.7l0.2,0.7l0.1,0.7l0.1,0.8l0.1,0.7l0.1,0.8l0.1,0.8l0.1,0.8
			l0.1,0.8l0.1,0.8l-0.3-0.1l-0.3-0.1l-0.3-0.1l-0.3-0.1l-0.3-0.1l-0.3-0.1l-0.3,0l-0.3,0l-0.3,0l-0.3,0l-0.3,0h-1.1l-0.7,0l-0.7,0
			l-0.7,0.1l-0.7,0.1l-0.7,0.1l-0.7,0.1l-0.7,0.1l-0.6,0.1l-0.6,0l-0.4,0l-0.4,0.1l-0.4,0.1l-0.4,0.1l-0.4,0.2l-0.4,0.2l-0.4,0.2
			l-0.4,0.2l-0.4,0.2l-0.4,0.2l-0.4,0.2l-0.4,0.2l-0.7,0.5l-0.7,0.5l-0.3,0.2l-0.3,0.2l-0.3,0.2l-0.3,0.2l-0.3,0.2l-0.3,0.1
			l-0.3,0.1l-0.3,0.1l-0.3,0h-0.3l-0.3,0l-0.3-0.1l-0.3-0.1l-0.2-0.2l-0.2-0.2l-0.2-0.3l-0.4-0.6l-0.5-0.5l-0.5-0.4l-0.5-0.4
			l-0.5-0.3l-0.5-0.2l-0.5-0.2l-0.5-0.1l-0.5-0.1h-0.5l-0.5,0l-0.5,0.1l-0.5,0.1l-0.5,0.2l-0.5,0.2l-0.5,0.3l-0.5,0.3l-0.5,0.3
			l-0.5,0.4l-0.5,0.4l-0.5,0.4l-0.5,0.4l-0.5,0.5l-0.5,0.5l-0.5,0.5l-0.5,0.5l-0.5,0.5l-0.5,0.5l-1.1,1l-1,1l-0.3,0.3l-0.4,0.3
			l-0.4,0.3l-0.4,0.3l-0.4,0.3l-0.4,0.3l-0.4,0.3l-0.4,0.3l-0.5,0.3l-0.5,0.3l-0.5,0.3l-0.5,0.3l-1.1,0.6l-1.1,0.6L6936.6,742.7z"/>
		<path id="Path_2436" class="st7" d="M6982.1,761.1l-0.3,2.5l-0.3,2.4l-0.4,2.4l-0.5,2.4l-0.6,2.3l-0.7,2.3l-0.8,2.3l-0.9,2.2
			l-1,2.2l-1,2.1l-1.1,2.1l-1.2,2.1l-1.3,2l-1.3,2l-1.4,1.9l-1.5,1.8l-1.5,1.8l-1.6,1.7l-1.7,1.7l-1.7,1.6l-1.8,1.5l-1.8,1.5
			l-1.9,1.4l-1.9,1.3l-2,1.3l-2,1.2l-2.1,1.1l-2.1,1l-2.2,1l-2.2,0.9l-2.3,0.8l-2.3,0.7v-41.8l0.2-0.2l0.2-0.2l0.2-0.2l0.2-0.2
			l0.2-0.2l0.2-0.2l0.3-0.2l0.3-0.2l0.3-0.2l0.3-0.1l0.3-0.1l0.3-0.1l0.3-0.1l0.3-0.1l0.3-0.1l0.3-0.1l0.3-0.1l0.4,0l0.4,0h0.8
			l0.4,0l0.4,0l0.4,0.1l0.4,0.1l0.4,0.1l0.4,0.1l0.4,0.1l0.4,0.2l0.5,0.2l0.5,0.2l0.5,0.2l-0.1,0l-0.1,0l-0.1,0l-0.1,0l-0.2,0
			l-0.2,0.1l-0.2,0.1l-0.2,0.1l-0.2,0.1l-0.2,0.1l-0.2,0.1l-0.2,0.1l-0.2,0.1l-0.2,0.2l-0.2,0.2l-0.2,0.2l-0.2,0.2l-0.2,0.2
			l-0.1,0.2l-0.1,0.2l-0.1,0.2l-0.1,0.2l0,0.2l0,0.3l0,0.3l0,0.3l0.1,0.3l0.1,0.3l0.2,0.3l0.2,0.3l0.2,0.3l0.3,0.3l0.2,0.2l0.2,0.1
			l0.3,0.1l0.2,0l0.3,0l0.3,0l0.3-0.1l0.3-0.1l0.3-0.1l0.3-0.2l0.3-0.2l0.3-0.2l0.3-0.2l0.2-0.3l0.3-0.3l0.2-0.3l0.2-0.3l0.2-0.3
			l0.2-0.3l0.2-0.3l0.2-0.3l0.2-0.3l0.2-0.3l0.2-0.3l0.4-0.7l0.3-0.7l0.3-0.6l0.2-0.5l0.3-0.7l0.3-0.7l0.4-0.6l0.4-0.6l0.4-0.5
			l0.5-0.5l0.5-0.5l0.5-0.4l0.5-0.4l0.5-0.3l0.5-0.3l0.5-0.2l0.5-0.2l0.5-0.2l0.5-0.1l0.5-0.1l0.5,0h0.5l0.4,0l0.4,0.1l0.4,0.1
			l0.4,0.2l0.3,0.2l0.3,0.3l0.2,0.3l0.2,0.4l0.1,0.4l0.1,0.4l0,0.5l0,0.5l-0.1,0.6l-0.2,0.6l0,0.1l0,0l-0.1,0h-0.1l-0.2,0l-0.2,0
			l-0.3-0.1l-0.3-0.1l-0.2,0l-0.2,0h-0.4l-0.2,0l-0.2,0l-0.2,0l-0.2,0.1l-0.2,0.1l-0.2,0.1l-0.2,0.1l-0.2,0.1l-0.1,0.2l-0.1,0.2
			l-0.1,0.2l-0.1,0.3l-0.1,0.3l-0.1,0.3l-0.1,0.4l-0.1,0.4l0,0.3v0.3l0,0.3l0.1,0.3l0.1,0.2l0.1,0.2l0.1,0.2l0.2,0.2l0.2,0.1
			l0.2,0.1l0.2,0.1l0.2,0.1l0.2,0.1l0.3,0h0.3l0.3,0l0.3,0l0.3-0.1l0.3-0.1l0.3-0.1l0.3-0.1l0.3-0.1l0.3-0.2l0.3-0.2l0.3-0.2
			l0.3-0.2l0.3-0.2l0.3-0.2l0.3-0.3l0.3-0.3l0.2-0.3l0.2-0.3l0.9-1.3l0.9-1.3l0.5-0.6l0.5-0.6l0.5-0.6l0.5-0.6l0.5-0.6l0.5-0.5
			l0.5-0.5l0.5-0.5l0.5-0.5l0.5-0.5l0.5-0.5l0.5-0.4l0.5-0.4l0.5-0.4l0.5-0.4l0.5-0.3l0.5-0.3l0.5-0.3l0.5-0.3l0.5-0.2l0.5-0.2
			l0.5-0.2l0.5-0.1l0.5-0.1l0.6-0.1l0.6,0l0.6,0L6982.1,761.1z M6903.4,782.5V817l-1.2-0.3l-1.2-0.4l-1.2-0.4l-1.2-0.4l-1.2-0.4
			l-1.2-0.5l-1.2-0.5l-1.2-0.5l-1.1-0.5l-1.1-0.6l-1.1-0.6l-1.1-0.6l-1.1-0.6l-1.1-0.6l-1.1-0.6l-1.1-0.7l-1-0.7l-1-0.7l-1-0.7
			l-1-0.8l-1-0.8l-1-0.8l-1-0.8l-0.9-0.8l-0.9-0.8l-0.9-0.9l-0.9-0.9l-0.9-0.9l-0.9-0.9l-0.8-0.9l-0.8-0.9l-0.8-1l0.9-1.4l1-1.4
			l0.5-0.7l0.5-0.7l0.5-0.7l0.5-0.7l0.5-0.7l0.6-0.7l0.6-0.7l0.6-0.6l0.6-0.6l0.6-0.6l0.6-0.6l0.6-0.5l0.6-0.5l0.6-0.4l0.6-0.4
			l0.6-0.3l0.6-0.3l0.6-0.2l0.6-0.1l0.6-0.1l0.6,0l0.6,0.1l0.6,0.1l0.6,0.2l0.6,0.3l0.6,0.4l0.6,0.5l0.6,0.6l-0.1,0l-0.1,0l-0.1,0
			l-0.2,0h-0.2l-0.2,0l-0.2,0l-0.2,0l-0.2,0l-0.2,0l-0.2,0.1l-0.2,0.1l-0.2,0.1l-0.2,0.1l-0.2,0.1l-0.2,0.1l-0.2,0.1l-0.2,0.1
			l-0.1,0.2l-0.1,0.2l-0.1,0.2l-0.1,0.2l-0.1,0.2l-0.1,0.2l0,0.2v0.3l0,0.3l0,0.3l0.1,0.3l0.1,0.3l0.2,0.3l0.2,0.3l0.2,0.3l0.2,0.3
			l0.2,0.2l0.3,0.2l0.3,0.1l0.3,0.1l0.3,0l0.3,0l0.3-0.1l0.3-0.1l0.3-0.1l0.3-0.2l0.3-0.2l0.3-0.2l0.3-0.2l0.3-0.3l0.3-0.3l0.3-0.3
			l0.3-0.3l0.3-0.3l0.3-0.3l0.3-0.3l0.3-0.3l0.3-0.3l0.5-0.7l0.4-0.6l0.4-0.6l0.3-0.5l0.2-0.3l0.2-0.3l0.3-0.3l0.3-0.3l0.3-0.2
			l0.3-0.2l0.3-0.2l0.3-0.2l0.3-0.1l0.3-0.1l0.3-0.1l0.3-0.1l0.3-0.1l0.4,0l0.3,0l0.4,0l0.3,0l0.3,0l0.4,0l0.3,0l0.3,0l0.3,0
			l0.3,0.1l0.3,0.1l0.3,0.1l0.3,0.1l0.3,0.1l0.3,0.1l0.3,0.1l0.2,0.1l0.2,0.1L6903.4,782.5z"/>
		<path id="Path_2437" class="st8" d="M6881.1,790.5l-0.2-0.8v0l-0.1,0.1l-0.5,0.5l-0.5,0.5l-0.5,0.6l-0.5,0.6l-0.5,0.6l-0.5,0.7
			l-0.5,0.6l-0.5,0.7l-0.5,0.7l-0.5,0.7l-1,1.4l-4,6.1l-4.3-5.2l-0.6-0.9l-0.6-0.8l-0.6-0.9l-0.6-0.8l-0.6-0.9l-0.6-0.9l-1.9-3
			l2.2-3.7l0.9-1.4l0.9-1.4l0.9-1.4l0.9-1.3l0.9-1.3l0.9-1.2l0.9-1.1l0.9-1.1l0.9-1l0.9-1l0.9-0.9l0.9-0.9l1-0.8l1-0.7l1-0.7l1-0.6
			l1-0.6l1-0.5l1.1-0.4l1.1-0.4l1.1-0.3l1.1-0.2l1.1-0.2l1.1-0.1l1.1,0l1.1,0.1l1.1,0.1l1.1,0.2l1.1,0.3l1.1,0.3l1,0.4l0.4,0.1
			l0.3,0.1l0.3,0.1l0.4,0.1l0.4,0.1l0.4,0.1l0.5,0l0.6,0l0.5,0h1.3l0.6,0l0.7,0l0.7,0l0.7-0.1l5.4-0.5v22.9l-6.6-4.4l0,0l-0.1-0.1
			l-0.1-0.1l-0.1-0.1l-0.1,0l-0.1,0l-0.3-0.1l-0.2-0.1l-0.1,0l-0.3-0.1l-0.2,0l-0.2,0l-0.2,0l-0.2,0h-0.1l-0.2,0l-0.2,0l-0.1,0
			l-0.2,0l-0.1,0l-0.1,0l-0.1,0l-0.1,0l-0.1,0l0,0l-0.1,0l-0.1,0.1l0,0l-0.1,0.1l-0.1,0.2l-0.3,0.5l-0.4,0.6l-0.5,0.7l-0.5,0.8
			l-0.3,0.4l-0.3,0.3l-0.3,0.4l-0.4,0.4l-0.3,0.4l-0.4,0.5l-0.4,0.4l-0.3,0.3l-0.4,0.4l-0.5,0.4l-0.5,0.4l-0.5,0.3l-0.6,0.3
			l-0.7,0.3l-0.8,0.3l-0.7,0.1l-0.8,0.1l-1-0.1l-1-0.3l-0.8-0.4l-0.9-0.5l-0.7-0.7l-0.5-0.7l-0.4-0.7l-0.3-0.6l-0.3-0.6
			L6881.1,790.5z M6977,767.6l-0.4,0.3l-0.4,0.3l-0.4,0.4l-0.4,0.4l-0.4,0.4l-0.4,0.4l-0.4,0.5l-0.4,0.5l-0.4,0.5l-0.4,0.5l-0.5,0.6
			l-0.4,0.6l-0.4,0.6l-0.4,0.6l-0.9,1.2l-1,1.4l-0.4,0.4l-0.3,0.4l-0.4,0.4l-0.4,0.4l-0.5,0.4l-0.4,0.3l-0.3,0.3l-0.5,0.4l-0.5,0.3
			l-0.5,0.3l-0.4,0.2l-0.5,0.2l-0.6,0.2l-0.5,0.1l-0.5,0.1l-0.6,0.1l-0.6,0h-0.6l-0.8-0.1l-0.6-0.2l-0.6-0.2l-0.8-0.3l-0.7-0.5
			l-0.5-0.4l-0.5-0.6l-0.5-0.7l-0.4-0.7l-0.2-0.5l-0.4,0.8l-0.3,0.4l-0.2,0.4l-0.3,0.4l-0.2,0.3l-0.3,0.4l-0.3,0.5l-0.3,0.4
			l-0.3,0.4l-0.4,0.5l-0.3,0.4l-0.3,0.3l-0.5,0.5l-0.5,0.4l-0.4,0.3l-0.5,0.4l-0.8,0.4l-0.6,0.2l-0.8,0.2l-1,0.1l-0.7,0l-0.9-0.2
			l-1-0.4l-0.8-0.5l-0.6-0.5l-0.6-0.6l-0.5-0.6l-0.4-0.6l-0.4-0.6l-0.3-0.7l-0.3-0.8l-0.1-0.7v0l-7.4,8.6v-26.5l2.8-1.4l0.5-0.3
			l0.5-0.3l0.5-0.3l0.4-0.2l0.4-0.3l0.5-0.3l0.4-0.3l0.3-0.2l0.4-0.3l0.4-0.3l0.3-0.3l0.3-0.3l0.3-0.3l0.3-0.2l0.3-0.3l1-1l1.1-1
			l0.6-0.5l0.6-0.5l0.6-0.5l0.6-0.5l0.6-0.5l0.6-0.5l0.6-0.5l0.6-0.5l0.7-0.5l0.7-0.5l0.7-0.4l0.7-0.4l0.8-0.4l0.8-0.3l0.8-0.3
			l0.9-0.2l0.9-0.1l0.9-0.1h0.9l0.9,0.1l1,0.2l1,0.3l0.9,0.4l0.9,0.5l0.8,0.6l0.7,0.7l0.2,0.2l0.1-0.1l0.6-0.4l0.7-0.5l0.4-0.3
			l0.4-0.3l0.4-0.2l0.5-0.3l0.5-0.3l0.5-0.2l0.5-0.2l0.6-0.2l0.7-0.3l0.7-0.2l0.6-0.1l0.7-0.1l0.7,0l0.6,0l0.7-0.1l0.7-0.1l0.7-0.1
			l0.8-0.1l0.8-0.1l0.9-0.1l0.8,0h0.8l0.4,0l0.4,0l0.5,0l0.4,0.1l0.4,0.1l0.5,0.1l0.4,0.1l0.5,0.1l0.5,0.2l0.4,0.1l0.5,0.2l2.6,1.2
			l0.3,3.2l0.1,0.9l0.1,0.9l0.1,0.9l0,0.9l0,0.9l0,0.9l0,0.9v0.8l0,0.8l0,0.7l0,0.7l0,0.8l0,0.7l0,0.7l-0.4,5.1l-4.8-0.7l-0.2,0
			l-0.3,0l-0.3,0l-0.2,0l-0.3,0.1l-0.3,0.1l-0.3,0.1l-0.3,0.1l-0.3,0.2l-0.4,0.2l-0.3,0.2l-0.3,0.2L6977,767.6z"/>
		<path id="Path_2438" class="st9" d="M6903.6,782.8l-0.2-0.1l-0.2-0.1l-0.2-0.1l-0.2-0.1l-0.2-0.1l-0.3-0.1l-0.3-0.1l-0.3-0.1
			l-0.3-0.1l-0.3-0.1l-0.3-0.1l-0.3-0.1l-0.3,0l-0.3,0l-0.4,0l-0.4,0l-0.4,0l-0.3,0l-0.4,0l-0.4,0.1l-0.4,0.1l-0.3,0.1l-0.3,0.1
			l-0.3,0.1l-0.3,0.2l-0.3,0.2l-0.3,0.2l-0.3,0.2l-0.3,0.3l-0.3,0.3l-0.2,0.3l-0.2,0.4l-0.3,0.5l-0.4,0.6l-0.4,0.6l-0.5,0.7
			l-0.3,0.3l-0.3,0.3l-0.3,0.4l-0.3,0.3l-0.3,0.3l-0.3,0.3l-0.3,0.3l-0.3,0.3l-0.3,0.3l-0.3,0.2l-0.3,0.2l-0.3,0.2l-0.3,0.2
			l-0.3,0.1l-0.3,0.1l-0.3,0.1l-0.3,0l-0.3,0l-0.3-0.1l-0.3-0.1l-0.3-0.2l-0.2-0.2l-0.2-0.3l-0.2-0.3l-0.2-0.3l-0.2-0.3l-0.1-0.3
			l-0.1-0.3l0-0.3l0-0.3v-0.3l0-0.2l0.1-0.2l0.1-0.2l0.1-0.2l0.1-0.2l0.1-0.2l0.1-0.2l0.2-0.1l0.2-0.1l0.2-0.1l0.2-0.1l0.2-0.1
			l0.2-0.1l0.2-0.1l0.2-0.1l0.2,0l0.2,0l0.2,0l0.2,0l0.2,0h0.2l0.2,0l0.1,0l0.1,0l0.1,0l-0.6-0.6l-0.6-0.5l-0.6-0.4l-0.6-0.3
			l-0.6-0.2l-0.6-0.1l-0.6-0.1l-0.6,0l-0.6,0.1l-0.6,0.1l-0.6,0.2l-0.6,0.3l-0.6,0.3l-0.6,0.4l-0.6,0.4l-0.6,0.5l-0.6,0.5l-0.6,0.6
			l-0.6,0.6l-0.6,0.6l-0.6,0.7l-0.6,0.7l-0.6,0.7l-0.5,0.7l-0.5,0.7l-0.5,0.7l-0.5,0.7l-0.5,0.7l-1,1.5l-0.9,1.4l-0.6-0.8l-0.6-0.8
			l-0.6-0.8l-0.6-0.8l-0.6-0.8l-0.5-0.8l-0.5-0.8l-0.5-0.8l0.9-1.5l0.9-1.4l0.9-1.4l0.9-1.3l0.9-1.2l0.8-1.2l0.9-1.1l0.8-1l0.8-1
			l0.8-0.9l0.8-0.9l0.8-0.8l0.8-0.8l0.8-0.7l0.8-0.6l0.8-0.6l0.8-0.5l0.8-0.5l0.8-0.4l0.8-0.3l0.8-0.3l0.9-0.2l0.8-0.2l0.9-0.1
			l0.9-0.1l0.9,0l0.9,0.1l0.9,0.1l0.9,0.2l0.9,0.2l0.9,0.3l0.9,0.3l0.4,0.1l0.5,0.1l0.5,0.1l0.5,0.1l0.6,0.1l0.6,0.1l0.6,0l0.6,0
			l0.7,0h1.4l0.7,0l0.8,0l0.8,0l0.8-0.1l0.8-0.1L6903.6,782.8z M6982.1,748.9l0.1,0.8l0.1,0.8l0.1,0.8l0.1,0.8l0,0.8l0,0.8l0,0.8
			l0,0.8v0.7l0,0.7l0,0.7l0,0.7l0,0.7l0,0.7l0,0.7l-0.1,0.7l-0.6-0.1l-0.6,0l-0.6,0l-0.6,0l-0.6,0.1l-0.5,0.1l-0.5,0.1l-0.5,0.2
			l-0.5,0.2l-0.5,0.3l-0.5,0.3l-0.5,0.3l-0.5,0.3l-0.5,0.4l-0.5,0.4l-0.5,0.4l-0.5,0.5l-0.5,0.5l-0.5,0.5l-0.5,0.5l-0.5,0.5
			l-0.5,0.6l-0.5,0.6l-0.5,0.6l-0.5,0.6l-0.5,0.6l-0.5,0.6l-0.5,0.6l-0.9,1.3l-0.9,1.3l-0.2,0.3l-0.2,0.3l-0.3,0.3l-0.3,0.3
			l-0.3,0.2l-0.3,0.2l-0.3,0.2l-0.3,0.2l-0.3,0.2l-0.3,0.2l-0.3,0.1l-0.3,0.1l-0.3,0.1l-0.3,0.1l-0.3,0.1l-0.3,0l-0.3,0h-0.3l-0.3,0
			l-0.2-0.1l-0.2-0.1l-0.2-0.1l-0.2-0.1l-0.2-0.1l-0.2-0.2l-0.1-0.2l-0.1-0.2l-0.1-0.2l-0.1-0.3l0-0.3V774l0-0.3l0.1-0.4l0.1-0.4
			l0.1-0.3l0.1-0.3l0.1-0.3l0.1-0.2l0.1-0.2l0.1-0.2l0.2-0.1l0.2-0.1l0.2-0.1l0.2-0.1l0.2-0.1l0.2,0l0.2,0l0.2,0h0.4l0.2,0l0.2,0
			l0.3,0.1l0.3,0.1l0.2,0l0.2,0h0.1l0.1,0l0,0l0-0.1l0.2-0.6l0.1-0.6l0-0.5l0-0.5l-0.1-0.4l-0.1-0.4l-0.2-0.4l-0.2-0.3l-0.3-0.3
			l-0.3-0.2l-0.4-0.2l-0.4-0.1l-0.4-0.1l-0.4,0h-0.5l-0.5,0l-0.5,0.1l-0.5,0.1l-0.5,0.2l-0.5,0.2l-0.5,0.2l-0.5,0.3l-0.5,0.3
			l-0.5,0.4l-0.5,0.4l-0.5,0.5l-0.5,0.5l-0.4,0.5l-0.4,0.6l-0.4,0.6l-0.3,0.7l-0.3,0.7l-0.2,0.5l-0.3,0.6l-0.3,0.7l-0.4,0.7
			l-0.2,0.3l-0.2,0.3l-0.2,0.3l-0.2,0.3l-0.2,0.3l-0.2,0.3l-0.2,0.3l-0.2,0.3l-0.2,0.3l-0.3,0.3l-0.2,0.3l-0.3,0.2l-0.3,0.2
			l-0.3,0.2l-0.3,0.2l-0.3,0.1l-0.3,0.1l-0.3,0.1l-0.3,0l-0.3,0l-0.2,0l-0.3-0.1l-0.2-0.1l-0.2-0.2l-0.3-0.3l-0.2-0.3l-0.2-0.3
			l-0.2-0.3l-0.1-0.3l-0.1-0.3l0-0.3l0-0.3l0-0.3l0-0.2l0.1-0.2l0.1-0.2l0.1-0.2l0.1-0.2l0.2-0.2l0.2-0.2l0.2-0.2l0.2-0.2l0.2-0.2
			l0.2-0.1l0.2-0.1l0.2-0.1l0.2-0.1l0.2-0.1l0.2-0.1l0.2-0.1l0.2-0.1l0.2,0l0.1,0l0.1,0l0.1,0l0.1,0l-0.5-0.2l-0.5-0.2l-0.5-0.2
			l-0.5-0.2l-0.4-0.1l-0.4-0.1l-0.4-0.1l-0.4-0.1l-0.4-0.1l-0.4,0l-0.4,0h-0.4l-0.4,0l-0.4,0l-0.4,0.1l-0.3,0.1l-0.3,0.1l-0.3,0.1
			l-0.3,0.1l-0.3,0.1l-0.3,0.1l-0.3,0.1l-0.3,0.2l-0.3,0.2l-0.3,0.2l-0.3,0.2l-0.2,0.2l-0.2,0.2l-0.2,0.2l-0.2,0.2l-0.2,0.2
			l-0.2,0.2v-12.8l0.6-0.3l0.5-0.3l0.5-0.3l0.5-0.3l0.5-0.3l0.5-0.3l0.5-0.3l0.5-0.3l0.4-0.3l0.4-0.3l0.4-0.3l0.4-0.3l0.4-0.3
			l0.4-0.3l0.3-0.3l0.3-0.3l1-1l1.1-1l0.5-0.5l0.5-0.5l0.5-0.5l0.5-0.5l0.5-0.5l0.5-0.5l0.5-0.4l0.5-0.4l0.5-0.4l0.5-0.4l0.5-0.3
			l0.5-0.3l0.5-0.3l0.5-0.2l0.5-0.2l0.5-0.1l0.5-0.1l0.5,0h0.5l0.5,0.1l0.5,0.1l0.5,0.2l0.5,0.2l0.5,0.3l0.5,0.4l0.5,0.4l0.5,0.5
			l0.4,0.6l0.2,0.3l0.2,0.2l0.2,0.2l0.3,0.1l0.3,0.1l0.3,0h0.3l0.3,0l0.3-0.1l0.3-0.1l0.3-0.1l0.3-0.2l0.3-0.2l0.3-0.2l0.3-0.2
			l0.3-0.2l0.7-0.5l0.7-0.5l0.4-0.2l0.4-0.2l0.4-0.2l0.4-0.2l0.4-0.2l0.4-0.2l0.4-0.2l0.4-0.2l0.4-0.1l0.4-0.1l0.4-0.1l0.4,0l0.6,0
			l0.7-0.1l0.7-0.1l0.7-0.1l0.7-0.1l0.7-0.1l0.7-0.1l0.7,0l0.7,0h0.7l0.3,0l0.3,0l0.3,0l0.3,0l0.3,0l0.3,0.1l0.3,0.1l0.3,0.1
			l0.3,0.1l0.3,0.1l0.3,0.1L6982.1,748.9z"/>
		<path id="Path_2439" class="st5" d="M6933.5,814.6l-5.6-5.7h-16.3l-5.6,5.3v3.9l5.3-5.4v0.1h16.6l5.6,5.7L6933.5,814.6z
			 M6933.5,796.9l-5.6-5.7h-16.3l-5.6,5.3v3.9l5.3-5.4v0.1h16.6l5.6,5.7L6933.5,796.9z M6918.5,799.1h2.2v4.7h-2.2V799.1z
			 M6918.5,781.4h2.2v4.7h-2.2V781.4z M6933.5,779.2l-5.6-5.7h-16.3l-5.6,5.3v3.9l5.3-5.4v0.1h16.6l5.6,5.7L6933.5,779.2z
			 M6918.5,745.2h2.2v4.7h-2.2V745.2z M6933.5,743l-5.6-5.7h-16.3l-5.6,5.3v3.9l5.3-5.4v0.1h16.6l5.6,5.7L6933.5,743z M6918.5,763.3
			h2.2v4.7h-2.2V763.3z M6933.5,761l-5.6-5.7l-16.3-0.1l-5.6,5.5v3.9l5.3-5.4v0.1h16.6l5.6,5.7L6933.5,761z"/>
		<path id="Path_2440" class="st10" d="M6933.9,824.1v0.7c0,0.5-0.1,1-0.4,1.5c-0.2,0.4-0.6,0.7-1.1,0.9c0.5,0.1,1,0.4,1.3,0.9
			c0.3,0.5,0.4,1.1,0.4,1.7v0.6c0.1,1-0.2,2-0.7,2.9c-0.6,0.6-1.5,0.9-2.4,0.8c-0.9,0.1-1.7-0.2-2.4-0.7c-0.5-0.8-0.8-1.7-0.7-2.7
			v-0.2h2.5v0.5c0,0.4,0,0.9,0.1,1.3c0.1,0.3,0.4,0.4,0.7,0.2c0.1-0.1,0.2-0.2,0.2-0.3c0.1-0.4,0.2-0.8,0.1-1.2v-1.3
			c0-0.4,0-0.8-0.2-1.1c-0.2-0.2-0.6-0.4-0.9-0.3h-0.2v-2h0.2c0.3,0,0.6-0.1,0.8-0.3c0.2-0.3,0.3-0.7,0.2-1.1v-0.8
			c0-0.4,0-0.8-0.1-1.2c-0.1-0.2-0.2-0.3-0.4-0.3c-0.2,0-0.4,0.1-0.4,0.3c-0.1,0.4-0.2,0.8-0.1,1.2v0.1h-2.4v-0.1
			c-0.1-0.9,0.1-1.7,0.7-2.4c1.4-0.9,3.2-0.9,4.7,0C6933.7,822.3,6934,823.2,6933.9,824.1 M6926.5,824.4v0.2c0,0.6-0.1,1.1-0.2,1.6
			c-0.2,0.6-0.5,1.1-0.8,1.6l-2.8,4.1h4v1.9h-6.5v-2.4l2.8-4.3c0.3-0.4,0.6-0.9,0.8-1.4c0.2-0.4,0.2-0.8,0.3-1.2v-0.5
			c0-0.4,0-0.8-0.1-1.3c-0.1-0.2-0.3-0.3-0.5-0.3c-0.2,0-0.4,0.1-0.5,0.3c-0.1,0.4-0.2,0.8-0.1,1.2v0.5h-2.5v-0.2
			c-0.1-0.9,0.1-1.9,0.7-2.7c1.4-1,3.4-1,4.8,0C6926.3,822.5,6926.6,823.4,6926.5,824.4L6926.5,824.4z M6916.3,824.1
			c0-0.4,0-0.9-0.1-1.3c-0.1-0.2-0.2-0.3-0.4-0.3c-0.2,0-0.4,0.1-0.5,0.3c-0.1,0.4-0.2,0.8-0.1,1.2v1.8c0,0.4,0,0.9,0.1,1.3
			c0.1,0.2,0.4,0.4,0.6,0.3c0.1-0.1,0.2-0.2,0.3-0.3c0.1-0.4,0.1-0.8,0.1-1.2L6916.3,824.1z M6918.7,825v4.9
			c0.1,1.1-0.1,2.2-0.7,3.2c-0.6,0.7-1.5,1-2.4,0.9c-0.8,0.1-1.7-0.1-2.4-0.7c-0.5-0.7-0.7-1.6-0.7-2.4v-0.3h2.5v0.3
			c0,0.4,0,0.8,0.1,1.3c0.1,0.2,0.3,0.3,0.5,0.3c0.2,0,0.4-0.1,0.4-0.3c0.1-0.4,0.2-0.8,0.1-1.2v-2.6c-0.4,0.6-1,0.9-1.7,0.9
			c-0.6,0-1.1-0.2-1.5-0.7c-0.4-0.7-0.5-1.4-0.5-2.2V825c-0.1-1.1,0.1-2.2,0.7-3.2c1.4-1.2,3.4-1.2,4.8,0
			C6918.6,822.8,6918.8,823.9,6918.7,825L6918.7,825z M6907.2,821.2h2.1v12.7h-2.4v-9.4c-0.4,0.4-0.9,0.8-1.5,1v-2.3
			c0.4-0.2,0.8-0.5,1.1-0.9C6906.9,821.9,6907.1,821.6,6907.2,821.2L6907.2,821.2z"/>
		<path id="Path_2441" class="st10" d="M6993.7,716.6l2.3-0.9l0.9,1.9l-2.3,0.9L6993.7,716.6z M6980,721.4l12.1-4.8l1.5,3l-12.1,4.8
			L6980,721.4z M6978.3,711.8L6978.3,711.8c-0.5,0.3-0.9,0.6-1,1.1c-0.1,0.5,0,1,0.3,1.3c0.3,0.5,0.7,0.8,1.2,1.1
			c0.4,0.2,0.8,0.1,1.2-0.1c0.6-0.3,0.6-1.2,0.1-2.5c-0.1-0.3-0.2-0.6-0.3-0.7c-0.5-1.1-0.6-2.3-0.5-3.4c0.2-0.8,0.8-1.5,1.6-1.9
			c1-0.6,2.2-0.6,3.2-0.2c1.3,0.5,2.3,1.4,3.1,2.5c0.8,1,1.3,2.2,1.3,3.5c-0.1,1.1-0.8,2-1.7,2.4l-0.2,0.1l-1.9-2.8l0.1,0
			c0.4-0.2,0.7-0.5,0.8-0.9c0.1-0.4,0-0.8-0.3-1.1c-0.2-0.4-0.6-0.7-1-0.8c-0.4-0.1-0.8-0.1-1.1,0.1c-0.6,0.3-0.5,1.3,0.1,3
			c0.2,0.4,0.3,0.8,0.4,1.1c0.4,0.9,0.4,1.8,0.2,2.7c-0.3,0.8-0.8,1.4-1.6,1.8c-1,0.6-2.3,0.7-3.5,0.3c-1.4-0.6-2.5-1.6-3.3-2.9
			c-0.8-1-1.3-2.3-1.2-3.7c0.2-1.2,1-2.2,2.1-2.7L6978.3,711.8z M6964.9,703.5l9.7-8.1l6.7,6.4l-1.9,1.6l-4.2-4.1l-2,1.7l4,3.9
			l-1.8,1.5l-4-3.9l-2.1,1.7l4.3,4.2l-1.9,1.6L6964.9,703.5z M6956.8,697.9l2.8-3.4l0.9-8.8l3.5,2.3l-1,5.7l5.7-2.6l3,2l-9.2,3.6
			l-2.7,3.3L6956.8,697.9z M6955.6,681.9l1.1-2l2.1,1l-1.1,2L6955.6,681.9z M6948.3,693.4l6-10.6l3.3,1.5l-6,10.6L6948.3,693.4z
			 M6938.7,677.4l5,1.6c2.4,0.8,4,1.8,4.9,3.2c0.8,1.5,0.9,3.3,0.1,4.8c-0.6,1.7-1.8,3-3.5,3.6c-2,0.5-4.1,0.4-6-0.4l-5-1.6
			L6938.7,677.4z M6941.3,680.6l-2.8,6.9l1.2,0.4c1.1,0.5,2.3,0.5,3.4,0.2c1-0.5,1.7-1.3,2-2.3c0.5-0.9,0.5-2,0.1-3
			c-0.6-0.9-1.6-1.6-2.7-1.8L6941.3,680.6z M6922.2,687.1l1.6-11.8l9.7,1.1l-0.3,2.3l-6.1-0.7l-0.3,2.4l5.8,0.6l-0.3,2.2l-5.8-0.6
			l-0.3,2.5l6.3,0.7l-0.3,2.4L6922.2,687.1z M6911,687.3l-0.5-11.9l3.7-0.1l0.4,9.6l5.9-0.2l0.1,2.3L6911,687.3z M6899.2,689.5
			L6896,678l9.5-2.1l0.6,2.2l-6,1.3l0.7,2.4l5.7-1.3l0.6,2.2l-5.7,1.3l0.7,2.5l6.2-1.4l0.6,2.3L6899.2,689.5z M6886.9,693.5l-5-11
			l4.6-1.7c1.4-0.6,2.9-0.9,4.4-0.8c1,0.1,1.9,0.7,2.3,1.7c0.3,0.6,0.3,1.2,0.1,1.8c-0.4,0.7-0.9,1.2-1.6,1.6
			c0.9-0.2,1.8-0.2,2.7,0.1c0.7,0.3,1.2,0.8,1.5,1.5c0.5,0.9,0.4,1.9-0.2,2.7c-0.9,1-2,1.7-3.3,2.1L6886.9,693.5z M6887.2,685.8
			l1.3-0.5c0.6-0.2,1.1-0.5,1.5-0.9c0.2-0.3,0.3-0.8,0.1-1.1c-0.2-0.4-0.5-0.7-0.9-0.7c-0.6-0.1-1.2,0-1.7,0.3l-1.3,0.5
			L6887.2,685.8z M6889.3,690.3l1.3-0.5c0.6-0.2,1.2-0.5,1.6-1c0.3-0.4,0.3-0.8,0.1-1.2c-0.2-0.4-0.6-0.7-1-0.8
			c-0.7,0-1.3,0.1-1.9,0.3l-1.3,0.5L6889.3,690.3z M6872,702.6l-8.1-9.4l7.7-5.4l1.6,1.8l-4.9,3.4l1.7,1.9l4.6-3.3l1.6,1.8l-4.6,3.3
			l1.7,2l5-3.5l1.6,1.9L6872,702.6z M6864.2,709.8l-9.7-8.1l2.5-2.4l7.8,6.5l4-3.9l1.9,1.6L6864.2,709.8z M6848.9,706.2l-2-1.3
			l1.3-1.7l2,1.3L6848.9,706.2z M6860.6,714.3l-10.8-6.8l2.1-2.7l10.8,6.8L6860.6,714.3z M6859,723.8l-1.1-0.5
			c0.3-0.3,0.6-0.6,0.9-1c0.2-0.3,0.4-0.5,0.6-0.8c0.1-0.2,0.1-0.3,0.1-0.5c-0.1-0.2-0.2-0.3-0.4-0.3c-0.2-0.1-0.4-0.1-0.5,0
			c-0.2,0.2-0.4,0.4-0.5,0.6c-0.1,0.1-0.1,0.2-0.1,0.2s-0.1,0.1-0.1,0.2l-1.7-0.7l0.5-0.8l0.7,0.3l0.1-0.1c0.2-0.5,0.6-0.9,1.1-1.1
			c0.4-0.2,0.9-0.1,1.4,0.1c0.5,0.2,0.8,0.5,1,1c0.1,0.5,0,1.1-0.3,1.5c-0.2,0.3-0.4,0.6-0.6,0.9
			C6859.6,723.1,6859.3,723.5,6859,723.8L6859,723.8z M6851.8,720.2L6851.8,720.2c0.5,0.3,1.1,0.3,1.6,0.2c0.5-0.2,0.9-0.5,1.1-0.9
			c0.3-0.4,0.4-0.9,0.4-1.4c-0.1-0.4-0.3-0.7-0.7-0.9c-0.6-0.3-1.4,0.1-2.4,1.2c-0.2,0.3-0.4,0.5-0.5,0.6c-0.8,1-1.8,1.7-3,2.2
			c-0.9,0.3-1.8,0.2-2.6-0.2c-1-0.4-1.7-1.3-1.9-2.3c-0.2-1.3,0.1-2.6,0.8-3.7c0.6-1.2,1.5-2.2,2.6-2.9c1-0.5,2.2-0.5,3.2,0l0.2,0.1
			l-1.6,3l-0.1,0c-0.4-0.2-0.9-0.3-1.3-0.1c-0.4,0.1-0.7,0.4-0.9,0.8c-0.2,0.4-0.3,0.8-0.2,1.2c0.1,0.4,0.3,0.6,0.7,0.8
			c0.6,0.3,1.5-0.3,2.8-1.7c0.3-0.4,0.6-0.7,0.8-0.9c0.6-0.7,1.5-1.3,2.4-1.6c0.8-0.2,1.7-0.1,2.5,0.3c1.1,0.4,1.9,1.3,2.1,2.5
			c0.1,1.4-0.2,2.9-1,4.1c-0.6,1.2-1.6,2.3-2.8,2.9c-1.2,0.5-2.5,0.4-3.6-0.2L6851.8,720.2z"/>
	</g>
</g>
</svg>
